<?xml version="1.0" encoding="utf-8"?>
<!-- Generator: Adobe Illustrator 16.0.0, SVG Export Plug-In . SVG Version: 6.00 Build 0)  -->
<!DOCTYPE svg PUBLIC "-//W3C//DTD SVG 1.1//EN" "http://www.w3.org/Graphics/SVG/1.1/DTD/svg11.dtd">
<svg version="1.1" id="Layer_1" xmlns="http://www.w3.org/2000/svg" xmlns:xlink="http://www.w3.org/1999/xlink" x="0px" y="0px"
	 width="245px" height="242px" viewBox="-71 -72 245 242" enable-background="new -71 -72 245 242" xml:space="preserve">
<path fill="#0C1A2F" d="M-14.263,73.496h-11.752v52.094h7.98v-19.572h3.775c3.988-0.011,6.961-1.115,8.946-3.309
	c1.97-2.195,2.952-5.382,2.952-9.567v-6.767c0-4.183-0.98-7.371-2.952-9.569C-7.3,74.612-10.275,73.509-14.263,73.496
	L-14.263,73.496z M-14.263,80.938c0.846-0.01,1.558,0.138,2.14,0.446c0.592,0.298,1.025,0.819,1.331,1.538
	c0.301,0.719,0.446,1.703,0.446,2.925v7.821c0,1.227-0.145,2.206-0.446,2.926c-0.301,0.719-0.739,1.229-1.331,1.538
	c-0.582,0.309-1.294,0.461-2.14,0.446h-3.775V80.943h3.775V80.938z M9.311,80.938h13.783v-7.442H1.332v52.094h21.762v-7.439H9.311
	v-15.253h10.955V95.45H9.311V80.938L9.311,80.938z M36.009,80.938h13.783v-7.442H28.029v52.094h21.763v-7.439H36.009v-15.253h10.953
	V95.45H36.009V80.938L36.009,80.938z M66.477,73.496h-11.75v52.094h7.98v-19.572h3.77c3.988-0.011,6.958-1.115,8.949-3.309
	c1.967-2.195,2.948-5.382,2.948-9.567v-6.767c0-4.183-0.981-7.371-2.948-9.569C73.44,74.612,70.47,73.509,66.477,73.496
	L66.477,73.496z M66.477,80.938c0.848-0.01,1.556,0.138,2.14,0.446c0.597,0.298,1.027,0.819,1.332,1.538
	c0.302,0.719,0.448,1.703,0.448,2.925v7.821c0,1.227-0.146,2.206-0.448,2.926c-0.305,0.719-0.74,1.229-1.332,1.538
	c-0.584,0.309-1.292,0.461-2.14,0.446h-3.77V80.943h3.77V80.938z M98.836,73.496H87.155l-8.129,52.094h7.331l1.38-9.452h9.791
	l1.379,9.452h8.051L98.836,73.496L98.836,73.496z M92.596,82.727l3.846,26.342h-7.694L92.596,82.727L92.596,82.727z M110.656,125.59
	h21.108v-7.442h-13.127V73.496h-7.981V125.59L110.656,125.59z M-22.879,138.357h-5.226v23.163h3.546v-8.702h1.68
	c1.771-0.006,3.095-0.496,3.976-1.47c0.879-0.979,1.313-2.396,1.313-4.251v-3.008c0-1.862-0.438-3.279-1.313-4.251
	C-19.787,138.858-21.108,138.366-22.879,138.357L-22.879,138.357z M-22.879,141.67c0.375-0.007,0.691,0.058,0.949,0.194
	c0.266,0.138,0.455,0.366,0.592,0.685c0.137,0.322,0.199,0.756,0.199,1.303v3.474c0,0.552-0.067,0.986-0.199,1.306
	c-0.137,0.318-0.326,0.545-0.592,0.682c-0.26,0.141-0.574,0.205-0.949,0.205h-1.68v-7.84h1.68V141.67z M-4.916,161.521
	c-0.171-0.424-0.278-0.858-0.326-1.306c-0.042-0.446-0.065-0.949-0.06-1.507v-3.575c0.004-0.806-0.067-1.531-0.213-2.182
	c-0.147-0.644-0.397-1.2-0.741-1.667c-0.344-0.46-0.811-0.824-1.399-1.08c0.791-0.382,1.37-0.96,1.755-1.742
	c0.38-0.776,0.571-1.76,0.571-2.955v-1.822c0.003-1.191-0.178-2.184-0.549-2.969c-0.366-0.793-0.935-1.381-1.709-1.771
	c-0.778-0.39-1.78-0.587-3.001-0.587h-5.353v23.163h3.548v-9.431h1.224c0.538-0.006,0.979,0.097,1.32,0.289
	c0.343,0.189,0.595,0.499,0.76,0.937c0.162,0.435,0.244,1.009,0.244,1.721v3.64c0,0.473,0.01,0.853,0.022,1.159
	c0.016,0.308,0.035,0.552,0.069,0.751c0.025,0.194,0.058,0.363,0.099,0.511c0.04,0.142,0.082,0.283,0.13,0.428h3.609V161.521z
	 M-10.691,141.67c0.625-0.007,1.084,0.183,1.377,0.563c0.288,0.384,0.434,0.994,0.431,1.815v2.282c0,0.616-0.086,1.101-0.26,1.458
	c-0.17,0.359-0.413,0.62-0.732,0.776c-0.314,0.142-0.696,0.219-1.14,0.212h-1.381v-7.114h1.706V141.67z M0.278,143.685
	c0.004-0.822,0.172-1.406,0.495-1.761c0.329-0.354,0.775-0.533,1.346-0.518c0.57-0.016,1.017,0.163,1.345,0.518
	c0.324,0.354,0.49,0.938,0.492,1.761v12.513c-0.002,0.817-0.17,1.406-0.492,1.761c-0.328,0.353-0.775,0.531-1.345,0.517
	c-0.571,0.015-1.015-0.164-1.346-0.517c-0.322-0.354-0.487-0.943-0.495-1.761V143.685L0.278,143.685z M-3.271,155.964
	c0,1.241,0.209,2.284,0.62,3.149c0.416,0.87,1.014,1.532,1.817,1.988c0.801,0.45,1.787,0.677,2.947,0.686
	c1.16-0.009,2.145-0.235,2.945-0.686c0.799-0.456,1.402-1.118,1.816-1.988c0.412-0.865,0.623-1.908,0.623-3.149v-12.048
	c0-1.241-0.211-2.292-0.623-3.156c-0.414-0.868-1.018-1.523-1.816-1.98c-0.8-0.454-1.785-0.682-2.945-0.686
	c-1.16,0.004-2.146,0.231-2.947,0.686c-0.803,0.457-1.402,1.112-1.817,1.98c-0.411,0.864-0.62,1.915-0.62,3.156V155.964
	L-3.271,155.964z M9.795,161.521h5.611c1.774-0.005,3.099-0.492,3.979-1.473c0.878-0.975,1.312-2.395,1.312-4.253V144.09
	c0-1.862-0.434-3.279-1.312-4.251c-0.88-0.98-2.205-1.468-3.979-1.473H9.795V161.521L9.795,161.521z M15.341,141.67
	c0.375-0.007,0.7,0.066,0.974,0.211c0.269,0.151,0.474,0.382,0.62,0.716c0.14,0.333,0.214,0.768,0.214,1.316v12.047
	c0,0.549-0.074,0.988-0.214,1.313c-0.146,0.337-0.351,0.564-0.62,0.717c-0.274,0.148-0.599,0.222-0.974,0.213h-1.999v-16.54h1.999
	V141.67z M22.956,161.521h3.547v-23.163h-3.547V161.521L22.956,161.521z M34.401,151.925h1.612v4.266
	c0,0.552-0.071,0.986-0.225,1.319c-0.154,0.328-0.36,0.567-0.637,0.718c-0.274,0.152-0.602,0.221-0.977,0.213
	c-0.375,0.008-0.704-0.068-0.979-0.213c-0.271-0.15-0.483-0.39-0.634-0.718c-0.149-0.333-0.223-0.768-0.223-1.319v-12.508
	c0.002-0.823,0.171-1.405,0.491-1.759c0.329-0.36,0.774-0.533,1.345-0.52c0.57-0.014,1.015,0.159,1.345,0.52
	c0.325,0.354,0.49,0.936,0.494,1.759v2.483h3.354v-2.253c0-1.24-0.202-2.289-0.597-3.159c-0.397-0.865-0.991-1.52-1.773-1.978
	c-0.785-0.455-1.758-0.68-2.921-0.688c-1.159,0.008-2.131,0.232-2.917,0.688c-0.785,0.458-1.375,1.112-1.774,1.978
	c-0.399,0.87-0.597,1.919-0.597,3.159v12.047c0,1.24,0.197,2.288,0.597,3.153c0.398,0.864,0.989,1.525,1.774,1.985
	c0.785,0.451,1.757,0.677,2.917,0.687c1.163-0.01,2.136-0.235,2.921-0.687c0.782-0.46,1.376-1.121,1.773-1.985
	c0.395-0.869,0.597-1.913,0.597-3.153v-7.348h-4.967V151.925L34.401,151.925z M44.5,161.521h3.548v-7.681l4.484-15.482h-3.386
	l-2.709,10.559l-2.708-10.559h-3.712l4.485,15.482v7.681H44.5z M58.5,143.916c0.004,0.94,0.13,1.779,0.387,2.518
	c0.244,0.732,0.573,1.394,0.988,1.98c0.408,0.584,0.86,1.123,1.358,1.613c0.484,0.49,0.979,0.964,1.467,1.42
	c0.494,0.453,0.949,0.914,1.353,1.39c0.419,0.464,0.749,0.979,0.998,1.522c0.248,0.553,0.375,1.155,0.385,1.838
	c0,0.545-0.078,0.987-0.229,1.314c-0.149,0.337-0.36,0.567-0.635,0.719c-0.271,0.149-0.6,0.22-0.978,0.213
	c-0.375,0.007-0.705-0.063-0.977-0.213c-0.277-0.151-0.486-0.382-0.635-0.719c-0.149-0.335-0.222-0.77-0.222-1.314v-1.825h-3.354
	v1.597c0,1.237,0.198,2.284,0.597,3.149s0.989,1.527,1.771,1.987c0.785,0.454,1.759,0.68,2.919,0.685
	c1.157-0.005,2.135-0.23,2.917-0.685c0.785-0.46,1.378-1.119,1.774-1.987c0.398-0.87,0.597-1.912,0.597-3.149
	c-0.001-0.945-0.133-1.786-0.378-2.519c-0.255-0.74-0.583-1.396-0.998-1.984c-0.407-0.584-0.865-1.124-1.353-1.611
	c-0.484-0.49-0.983-0.965-1.477-1.422c-0.487-0.449-0.943-0.909-1.354-1.388c-0.411-0.467-0.745-0.979-0.998-1.526
	c-0.242-0.543-0.372-1.161-0.375-1.834c0.003-0.822,0.153-1.406,0.466-1.761c0.302-0.354,0.741-0.533,1.305-0.518
	c0.573-0.016,1.011,0.163,1.309,0.518c0.312,0.354,0.465,0.938,0.467,1.761v1.126h3.354v-0.895c0-1.241-0.201-2.292-0.588-3.156
	c-0.39-0.868-0.98-1.523-1.751-1.98c-0.77-0.454-1.733-0.682-2.887-0.686c-1.146,0.004-2.116,0.231-2.89,0.686
	c-0.773,0.457-1.359,1.112-1.751,1.98C58.695,141.624,58.5,142.675,58.5,143.916L58.5,143.916z M77.944,152.878v3.313
	c0,0.552-0.071,0.986-0.221,1.319c-0.153,0.328-0.36,0.567-0.634,0.718c-0.276,0.152-0.604,0.221-0.981,0.213
	c-0.374,0.008-0.701-0.068-0.979-0.213c-0.272-0.15-0.481-0.39-0.632-0.718c-0.15-0.333-0.225-0.768-0.225-1.319v-12.508
	c0-0.823,0.174-1.405,0.493-1.759c0.333-0.36,0.772-0.533,1.343-0.52c0.569-0.014,1.019,0.159,1.346,0.52
	c0.32,0.354,0.49,0.936,0.49,1.759v2.483h3.36v-2.253c0-1.24-0.207-2.289-0.6-3.159c-0.398-0.865-0.995-1.52-1.777-1.978
	c-0.785-0.455-1.758-0.68-2.913-0.688c-1.163,0.008-2.138,0.232-2.924,0.688c-0.783,0.458-1.374,1.112-1.772,1.978
	c-0.399,0.87-0.597,1.919-0.597,3.159v12.047c0,1.24,0.197,2.288,0.597,3.153c0.398,0.861,0.989,1.525,1.772,1.985
	c0.786,0.451,1.761,0.677,2.924,0.687c1.155-0.01,2.128-0.235,2.913-0.687c0.782-0.46,1.379-1.121,1.777-1.985
	c0.393-0.869,0.6-1.913,0.6-3.153v-3.082H77.944L77.944,152.878z M87.014,151.594h4.029v9.927h3.613v-23.163h-3.613v9.928h-4.029
	v-9.928h-3.551v23.163h3.551V151.594L87.014,151.594z M100.491,143.685c0.007-0.822,0.176-1.406,0.499-1.761
	c0.329-0.354,0.771-0.533,1.344-0.518c0.57-0.016,1.016,0.163,1.341,0.518c0.321,0.354,0.487,0.938,0.496,1.761v12.513
	c-0.009,0.817-0.175,1.406-0.496,1.761c-0.325,0.353-0.771,0.531-1.341,0.517c-0.572,0.015-1.018-0.164-1.344-0.517
	c-0.326-0.354-0.492-0.943-0.499-1.761V143.685L100.491,143.685z M96.947,155.964c0,1.241,0.209,2.284,0.625,3.149
	c0.414,0.864,1.016,1.532,1.819,1.988c0.794,0.45,1.783,0.677,2.942,0.686c1.16-0.009,2.145-0.235,2.948-0.686
	c0.797-0.456,1.406-1.118,1.815-1.988c0.412-0.865,0.621-1.908,0.621-3.149v-12.048c0-1.241-0.209-2.292-0.621-3.156
	c-0.409-0.868-1.017-1.523-1.815-1.98c-0.804-0.454-1.788-0.682-2.948-0.686c-1.159,0.004-2.148,0.231-2.942,0.686
	c-0.804,0.457-1.405,1.112-1.819,1.98c-0.416,0.864-0.625,1.915-0.625,3.156V155.964L96.947,155.964z M113.268,143.685
	c0.007-0.822,0.169-1.406,0.491-1.761c0.333-0.354,0.781-0.533,1.349-0.518c0.567-0.016,1.015,0.163,1.341,0.518
	c0.324,0.354,0.49,0.938,0.495,1.761v12.513c-0.005,0.817-0.174,1.406-0.495,1.761c-0.326,0.353-0.773,0.531-1.341,0.517
	c-0.567,0.015-1.016-0.164-1.349-0.517c-0.322-0.354-0.484-0.943-0.491-1.761V143.685L113.268,143.685z M109.721,155.964
	c0,1.241,0.206,2.284,0.623,3.149c0.412,0.87,1.015,1.532,1.817,1.988c0.8,0.45,1.783,0.677,2.946,0.686
	c1.158-0.009,2.143-0.235,2.943-0.686c0.805-0.456,1.407-1.118,1.815-1.988c0.417-0.865,0.628-1.908,0.628-3.149v-12.048
	c0-1.241-0.211-2.292-0.628-3.156c-0.408-0.868-1.011-1.523-1.815-1.98c-0.801-0.454-1.785-0.682-2.943-0.686
	c-1.163,0.004-2.146,0.231-2.946,0.686c-0.801,0.457-1.405,1.112-1.817,1.98c-0.417,0.864-0.623,1.915-0.623,3.156V155.964
	L109.721,155.964z M122.783,161.521h9.387v-3.309h-5.843v-19.854h-3.545L122.783,161.521L122.783,161.521z"/>
<path fill="#FFCB05" d="M68.115,3.469l-0.03-0.008c-0.006-0.039-0.006-0.081-0.02-0.127L68.115,3.469L68.115,3.469z M67.878,3.449
	c-0.817,0.016-2.766,0.647-6.886,4.566l-6.624,5.125c0,0-2.714,1.229-0.65,4.345l5.319,5.794c0,0,0.76,1.558,0.439,2.67
	c0,0-1.629,2.786,0.542,6.686c0,0,3.043,3.089,0,8.839l-9.23,16.554c0,0-0.923,1.058-0.161,2.005l4.016,3.675
	c0,0,2.608,1.058,3.363,0.499c0,0,0.87-0.082-0.649-1.573l-0.214-0.879l1.03,0.333c0,0,7.385-15.704,7.16-17.149
	c0,0,1.283,0.279,0.877,1.838l-2.144,9.83c-1.089,1.313-0.177,2.057,1.031,2.674l7.922,0.222c0,0,1.14-0.501-0.812-1.725
	l-1.523-0.672c0,0-0.599-0.443-0.436-1.329l0.924-0.228l0.701-12.863c0,0,0.223-2.008-0.976-4.459l-2.06-4.007
	c0,0-0.601-3.48-0.061-4.596c0,0,0.926-3.286,0.982-4.345c0,0,2.932,1.948,3.911,1.17l0.918-18.489l1.524-0.111l0.109-2.451
	c0,0,7.763-2.284,8.902-4.012l6.238-6.627c0,0,1.679-1.279,2.423-2.056c0.503-0.531,0.576-1.208,0.798-1.932
	c1.115-0.157,8.631-2.174,2.423-1.475l-2.061,0.229l0.101-0.892c0.071-0.655,7.962-2.27,9.673-3.161c0,0,4.425-1.475,4.887-2.589
	c0,0,0.19-0.641-2.064-0.057c0,0-7.471,2.035-8.063,2.479l-4.013,1.254c0,0,0.271-2.199-1.032-2.787c0,0-1.848-0.667-3.26,2.622
	l-0.315,0.201c0,0,0.025-0.725-0.467-0.808c0,0-0.438-0.056-0.596,0.867l-0.195,0.917c0,0-5.494,1.03-9.313,1.894v1.826
	c1.142-0.124,2.363-0.288,3.585-0.517l5.43-1.114l0.053,0.835c0,0-3.459,0.413-5.04,0.908c-1.316,0.415-0.696,0.484,0.208,0.554
	c0.909,0.069,2.66-0.149,4.817-0.475c-0.023,0.072,0.15,1.071-0.204,1.519c0,0-3.964,4.345-5.646,5.346c0,0-1.58,0.986-3.204,1.764
	v0.081l-0.291,0.053c-1.03,0.479-2.046,0.836-2.634,0.774c-0.032-0.025-0.063-0.056-0.08-0.083c-0.021-0.11-0.085-0.213-0.193-0.244
	c0.221-0.394-0.185-0.537-0.258-0.496c-0.021-0.033-0.035-0.065-0.049-0.095c-0.031-0.083-0.066-0.246,0.117-0.375
	c0.145-0.133,0.545-0.592,0.565-0.694c0.075-0.383-0.296-0.525-0.469-0.676c-0.387-0.318-0.939-0.813-1.091-1.327
	c-0.201-0.434-0.29-1.455-0.233-1.412c0.141,0.104,0.238,0.301,0.336,0.524c-0.116-1.133-0.255-1.33-0.613-2.043
	c0.186,0.069,0.318,0.229,0.39,0.468c0.211-0.456-0.482-0.857-0.715-1.086c-0.391-0.4,0.158,0.133-0.104-0.32
	c-0.109-0.195-0.473-0.416-0.703-0.495c-0.655-0.238-1.018-0.395-1.766-0.628L70.4-7.998c-0.813,0.114-1.683,0.466-2.46,0.793
	c0.338-0.291,0.759-0.546,1.213-0.788c-0.896,0.277-2.01,0.896-2.479,1.774c-0.08,0.152-0.179,0.425-0.302,0.496
	c-0.114-0.117-0.146-0.361-0.146-0.663c-0.127,0.4-0.151,0.802-0.019,1.205c-0.767,0.508-1.089,1.085-1.133,2.115l-0.035,0.679
	c0.083-0.527,0.204-1.699,0.629-2.045l-0.379,1.279c-0.167,0.747-0.131,3.038,0.216,4.176c0-0.372,0.024-0.698,0.125-0.793
	c0.146,0.295,0.492,0.743,0.702,0.983C67.358,2.313,67.592,2,67.878,3.449L67.878,3.449z M59.928,12.744l-0.053,7.296l-2.283-2.781
	c0,0-1.276-1.659-0.162-2.354l1.074-1.071L59.928,12.744L59.928,12.744z"/>
<path fill="#FFCB05" d="M80.263,4.038c-0.186-0.335-0.49-0.546-1.002-1.259c-0.177-0.269-0.468-0.769-0.577-1.088
	c-0.115,0.081-0.179,0.409-0.231,0.781c-0.07-0.428-0.085-1.005-0.059-1.596c0.489-0.14,1.045-0.365,1.611-0.627l0.287-0.055v-0.08
	C81.916-0.662,83.5-1.649,83.5-1.649c0.963-0.572,2.664-2.238,3.96-3.56c0.277,0.145,0.534,0.287,0.875,0.465
	c0.215,0.115,0.556,0.384,0.646,0.595c0.202,0.487-0.284-0.12,0.066,0.333c0.099,0.134,0.32,0.327,0.472,0.54l-0.161,0.169
	c-0.021-0.016-0.042-0.03-0.068-0.042l0.032,0.085l-4.194,4.45C84.558,2.252,82.344,3.25,80.263,4.038L80.263,4.038z"/>
<path fill="#7DC042" d="M85.685,7.888c-0.059,0.235-0.04,0.455,0.063,0.567c0.51,0.3,1.683,1.608,1.685,1.612l0.019,0.026
	c3.447,5.108,4.702,13.877,4.704,13.9l-0.002,0.065c-0.343,2.028,0.557,2.19,0.744,2.205c1.071-0.371,9.301-0.611,9.328-0.611
	c1.897-0.417,7.633,2.122,3.265,7.055l-8.578,7.937l-0.036,0.026c-0.604,0.299-1.481,1.051-1.422,1.368l1.18-0.095l0.086-0.006
	l0.067,0.061c1.255,1.154,0.278,2.528,0.274,2.531l-0.07,0.107l-0.127-0.02l-1.179-0.189c-0.073,0.04,0.078,0.29,0.078,0.29
	l0.032,0.071c0.145,0.86,1.815,2.095,1.821,2.097l0.015,0.013c1.703,1.561,0.366,2.604,0.366,2.607l-0.047,0.028
	c-2.295,1.008-4.956-1.62-5.198-1.869l-3.172-2.14c-0.185,0.85-1.029,1.709-1.198,1.87l-3.294,7.978l-0.007,0.015
	c-1.059,2.052-1.1,3.575-1.015,3.799c1.353-1.041,2.677-0.734,2.684-0.729l0.177,0.109l-0.12,0.186l-0.942,1.426
	c0.59,0.584,2.669,1.23,3.333,1.426c1.422,0.417,1.142,1.91-0.027,2.631l-0.115,0.032l-10.459-0.076l-0.141-0.009l-0.045-0.128
	c-0.986-2.733,0.957-4.487,0.962-4.487l0.021-0.009c1.063-0.444,1.697-6.424,1.718-6.618c0.254-4.094,3.159-7.78,3.575-8.3
	l-0.148-4.19l-1.614-0.151l-0.174-0.016l-0.013-0.176l-0.47-6.452l-1.032,0.003c-0.028-0.933,0.313-9.781,0.044-9.997
	c0,0-1.021,2.174-1.091,2.347l-1.612,5.235l-0.013,0.036c-0.785,1.503-0.41,4.965-0.41,4.977l-0.021,0.111
	c-0.101,0.208-0.422,0.095-0.605-0.205c-0.321-0.522-0.59-1.411-1.133-0.755c-0.741,0.904-0.62,2.287-0.912,2.991
	c-0.277,0.666-0.759,0.618-0.759,0.618l-0.106-0.047c-0.458-1.1-1.015-2.979,0.133-5.47c0.339-0.745,1.101-1.03,1.175-2.011
	l0.006-0.022l1.138-4.677v-0.003c0.448-1.71,1.305-4.836,1.305-4.845l0.02-0.049c0.372-0.663,0.493-4.302,0.514-4.976l-0.823-0.407
	c0.065-0.316,0.08-0.582,0.126-0.9c0.311-2.107,1.634-6.088,2.194-7.718h0.266c0.387-0.688,0.731-1.511,0.646-2.171
	c-0.189,0.516-0.305,1.016-0.753,1.301c0.38-0.708,0.448-0.636,0.174-1.88c0.009,0.28-0.079,0.465-0.192,0.628
	c-0.069-2.108-0.303-1.62-1.28-2.988c-0.178-0.269-0.464-0.769-0.576-1.088c-0.111,0.081-0.177,0.409-0.232,0.781
	c-0.198-1.194,0.071-3.5,0.325-4.23l0.555-1.234c-0.474,0.292-0.747,1.456-0.901,1.971l0.116-0.677
	c0.179-1.034,0.578-1.569,1.413-1.972c-0.081-0.425-0.008-0.827,0.181-1.212c-0.042,0.298-0.042,0.555,0.065,0.688
	c0.133-0.055,0.266-0.316,0.362-0.459c0.581-0.817,1.789-1.288,2.722-1.448c-0.483,0.186-0.947,0.382-1.319,0.63
	c0.829-0.226,1.741-0.461,2.576-0.468l2.105,0.322c0.717,0.336,1.061,0.544,1.686,0.871c0.218,0.116,0.561,0.386,0.644,0.594
	c0.207,0.489-0.277-0.119,0.07,0.337c0.204,0.26,0.851,0.761,0.579,1.191c-0.05-0.251-0.157-0.431-0.336-0.527
	c0.266,0.765,0.383,0.983,0.346,2.14c-0.063-0.24-0.14-0.452-0.259-0.575C89.331-1.635,89.289-0.6,89.44-0.133
	c0.085,0.534,0.575,1.105,0.918,1.482c0.162,0.172,0.513,0.364,0.387,0.742c-0.033,0.102-0.494,0.512-0.656,0.619
	c-0.197,0.11-0.193,0.275-0.165,0.364c0.004,0.032,0.013,0.07,0.032,0.102c0.08-0.028,0.471,0.164,0.198,0.534
	c0.239,0.105,0.2,0.573-0.026,0.595c-0.376-0.072,0.135,0.673-0.032,1.287c-0.28,0.378-0.667,0.331-1.167,0.264
	c-1.013-0.137-1.862-0.421-2.407,0.301c-0.235,0.327-0.586,1.021-0.854,1.729h0.017V7.888z M91.67,38.457
	c0,0-1.685,0.392-0.545,2.06c0,0,1.577,0.39,2.117-0.667c1.927-1.329,4.785-7.787,6.837-8.576c0,0-3.853,0.949-5.644,3.842
	c-0.801,2.668-0.467,2.073-2.905,3.386L91.67,38.457L91.67,38.457z"/>
<path fill="#8DC73F" d="M102.118,15.124c2.634,0,4.777,2.195,4.777,4.904c0,2.708-2.138,4.9-4.777,4.9
	c-2.642,0-4.778-2.192-4.778-4.9C97.34,17.319,99.479,15.124,102.118,15.124L102.118,15.124z"/>
<path fill="#F3818D" d="M37.493,33.286c0,0,1.607,3.964,1.607,4.698c0,0.735,0.357,3.418,0.236,3.902
	c-0.118,0.489,2.083,0,4.342-2.683c0,0,1.725-1.833,5.174,0.304c0,0,1.902,2.927,4.044,1.343c0,0-0.121-1.343,1.781-1.161
	l4.051-7.197l3.203-1.221l1.668,1.586l-7.911,14.7c0,0-0.528,1.649,4.167,4.694l0.119,2.931c0,0,3.444,3.235,6.952,3.903
	c0,0,3.66-0.092,3.689,1.015c0,0,0.239,1.49-0.714,2.255l-13.259,0.515c0,0-1.404-1.096-1.139-3.167l-0.563-0.065
	c0,0-5.978-7.989-6.512-7.989c0,0-1.424-2.319-2.201-0.244c0,0-4.694,7.26-7.134,9.03c0,0-1.605,2.197-4.52,2.379
	c-2.915,0.181,0.307-0.026,0.307-0.026s-8.811,1.488-10.536-1.747c0,0-2.083-2.498-2.021-4.33c0,0-0.356-12.017,0.535-13.175
	c0,0,2.258-7.073,5.945-11.771c0,0,1.069-1.83,3.389-2.011c2.434-1.871,1.885-3.486,1.333-6.144
	c-0.064-0.367-0.142-1.039-0.114-1.427l-0.776,0.692c1.145-2.261,0.561-2.526,2.455-4.297l1.147-1.037
	c-0.634,0.08-1.456,1.18-1.86,1.647l0.438-0.657c0.658-1.008,1.325-1.383,2.395-1.403c0.109-0.488,0.376-0.877,0.741-1.197
	c-0.177,0.298-0.295,0.566-0.244,0.755c0.164,0.006,0.419-0.208,0.593-0.308c0.995-0.587,2.48-0.498,3.545-0.216
	c-0.597-0.042-1.177-0.053-1.685,0.028c0.981,0.159,2.053,0.351,2.937,0.751l2.08,1.356c0.604,0.701,0.879,1.089,1.39,1.743
	c0.178,0.222,0.413,0.673,0.409,0.939c-0.008,0.614-0.247-0.265-0.083,0.385c0.092,0.369,0.545,1.213,0.064,1.536
	c0.065-0.286,0.03-0.529-0.118-0.718c-0.068,0.94-0.04,1.234-0.61,2.434c0.043-0.282,0.06-0.544-0.014-0.735
	c-0.031-0.081-0.552,0.998-0.61,1.562c-0.152,0.609,0.104,1.449,0.291,2.012c0.091,0.262,0.381,0.634,0.072,0.97
	c-0.083,0.093-0.758,0.299-0.981,0.343c-0.257,0.018-0.327,0.199-0.341,0.304c-0.008,0.038-0.016,0.077-0.016,0.124
	c0.105,0.007,0.422,0.403-0.035,0.657c0.206,0.23-0.058,0.706-0.298,0.618c-0.369-0.252-0.172,0.78-0.624,1.351
	c-0.465,0.262-0.854,0.029-1.358-0.29c-1.003-0.627-1.772-1.346-2.684-0.841C38.863,31.125,37.396,32.716,37.493,33.286
	L37.493,33.286z"/>
<path fill="#CBC02D" d="M51.544,64.071c65.557,0.197,118.707,1.012,118.707,1.836c0,0.819-53.15,1.328-118.707,1.14
	C-14.015,66.854-67.16,66.03-67.16,65.213C-67.16,64.39-14.015,63.879,51.544,64.071L51.544,64.071z"/>
<path fill="#CBC02D" d="M-17.535-61.114c5.551-4.114,4.06-3.802,13.073-3.802c3.599,0,4.126,1.75,7.369,1.306
	c6.151-0.847,15.413,8.131,16.264,8.248c4.71,0.654,4.051,0.419,6.37,2.702c4.247,4.164,5.497-0.913,9.221,4.176
	c2.209,1.687,1.562,4.367,4.05,7.004c1.226,1.299,3.623,2.879,3.645,2.908c2.955,3.339,2.345,0.943,3.342,5.989
	c0.815,4.114-0.437,2.524,1.264,7.472c0.563,1.635,2.491,1.144,1.306,5.826c-1.246,4.929,4.652,0.177,4.652,7.374
	c0,1.041-0.285,1.383-0.069,2.576c8.147,0.754,6.305,5.432,6.551,11.83c0.212,5.59-8.602,6.43-9.185,6.863
	c-3.018,2.26-6.258,3.787-11.251,2.908c-6.729-1.175-7.151,0.443-11.263-1.445c-2.037-0.988-4.295,0.615-6.93,1.366
	c-2.134,3.746-3.094,4.208-6.012,6.166c-1.57,1.054-3.45,3.062-4.428,4.297c-2.142,2.71-2.935,3.131-1.082,6.392
	c1.336,2.347,4.58,25.241,5.929,26.493c1.404,0.73,2.694,1.6,4.122,2.28c1.379,0.655,3.633,2.451,4.997,3.617
	c2.508,2.146,7.657,2.568,7.982,2.607c-0.239,0.22-5.646,0.719-7.183,0.149c-3.917-1.455-5.074-1.248-3.821,0.705
	c0.334,0.426-1.941-0.102-2.264-1.407c-2.589-2.549-1.334,1.818-3.103,1.207c-4.482-1.556-5.688-3.434-5.271-2.167
	c0.705,2.161-5.269,2.351-4.975,0.842c0.512-2.565-5.119-0.81-7.157,0.183c-2.59,1.27-8.025,1.518-10.279,1.299
	c10.257-3.599,8.144-5.644,9.943-7.035c0.646-0.508,0-19.136,0.004-19.136c0.228-1.411-1.425-6.826-1.863-8.079
	c-0.702-2.011-1.234-2.093-1.895-3.434c-1.266-2.555-3.005-4.394-4.66-6.926c-1.635-2.502-7.397-5.321-8.967-7.65
	c-0.896-1.334-1.115-2.76-1.049-4.016c-2.794-0.625-5.939-0.787-7.188,0.853c-0.641,0.84-6.23,5.176-7.559-1.514
	c-0.508-2.558-1.739-1.691-3.589-0.801c-3.645,1.759-8.187,0.113-8.354-1.785c-0.206-2.372,2.004-4.614-2.205-5.868
	c-1.602-0.476-2.538-0.276-4.145,0.148c-2.613,0.696-7.85-0.937-5.029-5.487c1.318-2.126-0.97-2.951-1.91-4.464
	c-1.54-2.466,4.428-6.015-1.654-7.678c-1.367-0.37-1.811-2.353-1.811-3.662c10.094,0-1.682-11.693,9.522-14.023
	c3.039-0.635,5.865-0.587,7.854-2.341c5.618-4.957-4.598-15.975,6.162-13.913c2.495,0.479,0.522-1.329,2.161-3.358
	c1.642-2.036,1.69-1.662,3.856-2.699C-29.869-59.916-22.214-57.656-17.535-61.114L-17.535-61.114z M17.843,12.505
	c-0.958-0.106-1.964-0.435-3.02-1.113c-0.477-0.301-0.992-0.598-1.535-0.864c-0.958,2.599-2.991,7.449-4.769,9.52
	c-0.313,0.362-0.338,0.711,0.375,0.468C10.479,19.971,14.427,15.981,17.843,12.505L17.843,12.505z M12.83,10.313
	c-2.676-1.197-6.031-1.685-9.231,0.278c-0.067,0.044-0.2,0.143-0.388,0.263c0.123,1.173,0.05,2.566-0.294,4.141
	C1.298,22.401,6.807,19.219,12.83,10.313L12.83,10.313z M-2.617,10.106c-6.762-5.738-9.067-0.206-12.99-0.331
	c4.271,5.699,10.953,13.104,12.49,2.264C-2.981,11.32-2.813,10.675-2.617,10.106L-2.617,10.106z"/>
<path fill="#00AEEF" d="M105.284,9.47c-0.002,3.969-0.055,6.725-1.383,10.394c-0.469,1.286-0.372,1.655-1.31,2.816
	c-0.337,0.414,0.456,2.844-0.981,5.466c-1.019,1.867,0.93,3.864-0.233,7.317c-0.994,2.944-0.307,2.792-1.827,6.234
	c-0.625,1.415-0.632,3.185-1.87,4.568c-0.966,1.076-0.567,2.242-0.49,3.661l0.894,0.069c0.237,0.021-0.028,0.817,0.032,1.287
	c0.205,1.817-0.061,6.225,2.73,5.799c2.003-0.307,2.136-5.664,2.153-7.472c0-0.367,1.469,0.356,1.469,0.055
	c-0.011-4.57-1.82-4.123,0.113-6.589c1.242-1.59,1.077-4.749,2.548-6.684c0.366-0.814,4.158-6.166,4.354-6.002
	c0.077,0.072,0.686,6.047,0.759,6.634c0.499,3.742,2.061,7.708,2.098,12.21l0.06,6.954c0.109-0.035,1.477,0.092,0.925,0.495
	c-0.535,0.396,0.159,6.186,0.212,6.354c0.871,2.634,2.656,1.299,3.18-0.451c0.393-1.306,0.241-3.749,0.425-5.267
	c0.026-0.215,1.634,0.032,1.664-0.144c0.695-4.166,0.051-7.562-0.651-10.2c-0.29-1.082,0.051-2.72,0.102-3.987
	c0.069-1.574-0.433-2.705-0.195-4.55c0.454-3.464,1.948-0.781,0.257-4.489c-0.252-0.545-0.886-6.579-1.014-7.716
	c0.236-0.072,0.188,0.042,0.407-0.038c0.595-1.767-1.664-1.553-0.327-5.024c1.293-3.362,0.941-9.833,0.897-13.569l4.848-1.262
	l-0.181-1.135l3.749-1.334c0.731-0.256,1.358-1.147,1.65-1.854l4.079-8.55l0.128,0.162c0.014,0.918-0.272,1.585-0.545,2.008
	c-0.14,0.031-0.161,0-0.405,0.203c-0.24,0.202-0.405,0.858-0.204,1.11c0.204,0.255,0.403,0.271,0.655,0.23l1.188,1.491
	c-0.377,0.656-0.631,1.023-0.262,1.487c0.371,0.464,2.491-0.158,4.431-1.779c1.934-1.624,2.952-3.63,2.586-4.096
	c-0.372-0.466-0.773-0.282-1.474-0.037l-1.212-1.522c0.069-0.226,0.085-0.392-0.112-0.634c-0.189-0.242-0.862-0.216-1.102-0.019
	c-0.232,0.199-0.198,0.209-0.254,0.329c-0.617,0.215-1.396,0.248-1.895,0.241l-0.417-0.517c-0.027-0.006-0.064-0.028-0.105-0.053
	c0.203-0.326,0.314-0.645,0.327-0.842c0.008-0.097,0.026-0.247,0.003-0.361c-0.181-0.9-1.671-2.009-1.671-2.009
	c0.159-0.585-0.67-0.75-1.049-0.847c-0.209-0.053-0.387,0.145-0.528,0.465c-0.049,0.096-0.09,0.2-0.126,0.302
	c-0.048-0.045-0.088-0.095-0.129-0.143c-0.101-0.127-0.185-0.256-0.254-0.387c0.081-0.108,0.146-0.219,0.194-0.333
	c0.822-1.39,1.008-3.756,0.447-5.892c-0.447-1.703-1.429-2.81-2.467-2.532c-0.499,0.134-0.986,0.716-0.67,1.544
	c0,0.003-0.03,0.044-0.107,0.105l-4.476,3.747c-0.064,0.049-0.099,0.068-0.099,0.068c-0.735-0.481-1.388-0.111-1.612,0.362
	c-0.476,0.993,0.39,2.196,1.922,2.985c1.93,0.991,4.225,1.281,5.721,0.734c0.106-0.026,0.219-0.066,0.336-0.119
	c0.112,0.096,0.22,0.208,0.322,0.335c0.204,0.253,0.345,0.536,0.431,0.817c-0.197,0.651-0.336,1.233-0.384,1.493
	c0.065,0.409,0.479,0.446,0.462,0.751c-0.066,1.337-0.86,2.178-1.312,3.048c-0.762,1-2.938,5.018-2.938,5.018
	c-0.271,0.668-1.289,1.155-1.289,1.155l-2.726,0.272l-0.271-0.621l-3.05,0.108c-1.208,0.044-2.454,0.139-3.614-0.22
	c-0.561-0.602-1.401-1.642-1.431-2.512c0.252,0.446,0.424,0.892,0.874,1.083c-0.449-0.595-0.496-0.518-0.423-1.703
	c0.032,0.258,0.139,0.414,0.26,0.552c-0.233-1.957,0.051-1.536,0.747-2.946c0.126-0.276,0.323-0.776,0.38-1.086
	c0.112,0.056,0.22,0.344,0.32,0.681c0.012-1.126-0.56-3.21-0.904-3.844l-0.685-1.052c0.479,0.196,0.894,1.228,1.115,1.675
	l-0.21-0.604c-0.31-0.919-0.753-1.357-1.579-1.598c0.013-0.406-0.112-0.761-0.342-1.089c0.082,0.271,0.121,0.503,0.048,0.641
	c-0.136-0.029-0.293-0.25-0.402-0.365c-0.658-0.664-1.832-0.912-2.716-0.919c0.475,0.096,0.928,0.209,1.305,0.378
	c-0.787-0.083-1.673-0.158-2.438-0.039l-1.894,0.616c-0.608,0.415-0.899,0.66-1.426,1.06c-0.186,0.139-0.465,0.438-0.513,0.644
	c-0.11,0.482,0.247-0.152-0.012,0.319c-0.145,0.271-0.671,0.828-0.357,1.184c0.012-0.239,0.08-0.419,0.233-0.535
	c-0.137,0.744-0.215,0.967-0.016,2.022c0.03-0.228,0.068-0.438,0.163-0.57c0.041-0.054,0.224,0.894,0.157,1.348
	c0,0.504-0.368,1.105-0.63,1.5c-0.123,0.188-0.421,0.417-0.254,0.742c0.048,0.089,0.531,0.396,0.696,0.473
	c0.192,0.07,0.213,0.222,0.206,0.308c0,0.035-0.005,0.066-0.014,0.102c-0.077-0.016-0.41,0.222-0.107,0.516
	c-0.205,0.136-0.097,0.56,0.107,0.544c0.339-0.122-0.019,0.638,0.215,1.182c0.312,0.301,0.659,0.203,1.114,0.063
	c0.905-0.276,1.651-0.671,2.258-0.087c0.28,0.274,0.413,0.379,0.768,1.018c-2.005,0.414-4.107,0.584-5.904,0.943l-3.816,0.761
	l-0.063,1.057l-0.665,0.13c-1.57,0.363-1.632-0.333-1.632-0.333L98.98-4.464l1.252-1.449l0.268-2.729
	c0.163-0.834-0.763-0.781-0.763-0.781c-0.757-0.109-0.045,0.624-0.973,0.5c-0.927-0.121-1.824,0.776-2.576,2.062
	c-0.378,1,0.873,1.782,0.873,1.782L96.847,4.45c-0.059,2.813,3.624,2.828,5.42,3.015c0.079,0.282,0.079,1.337,0.197,1.365
	L105.284,9.47L105.284,9.47z M131.789-16.094l0.685,0.86c-0.121-1.216,0.042-4.121-2.131-4.723
	c-0.198-0.054-0.555,0.316-0.105,0.742C128.935-18.836,131.27-16.585,131.789-16.094L131.789-16.094z M127.107-12.175l0.537,0.863
	c-1.304-0.507-3.797-0.821-3.906-3.054c-0.012-0.21,0.379-0.527,0.7,0.01C125.062-15.589,126.739-12.793,127.107-12.175
	L127.107-12.175z"/>
<path fill="#A7A9AC" d="M102.432,25.621c2.069-0.206,7.277,2.324,3.059,7.086l-4.537,4.198c0.097-0.396,0.222-0.856,0.424-1.449
	c1.163-3.45-0.785-5.444,0.233-7.312C102.101,27.26,102.325,26.391,102.432,25.621L102.432,25.621z M97.363,46.693
	c0.147,0.119,0.248,0.191,0.248,0.191l0.014,0.013c1.701,1.561,0.366,2.604,0.366,2.607l-0.044,0.028
	c-0.251,0.108-0.513,0.177-0.771,0.208C97.094,48.586,96.841,47.601,97.363,46.693L97.363,46.693z"/>
<path fill="#868F3E" d="M80.263,4.038c-0.186-0.335-0.49-0.546-1.002-1.259c-0.177-0.269-0.468-0.769-0.577-1.088
	c-0.115,0.081-0.179,0.409-0.231,0.781c-0.07-0.428-0.085-1.005-0.059-1.596c0.489-0.14,1.045-0.365,1.611-0.627l0.287-0.055v-0.08
	C81.916-0.662,83.5-1.649,83.5-1.649c0.963-0.572,2.664-2.238,3.96-3.56c0.277,0.145,0.534,0.287,0.875,0.465
	c0.215,0.115,0.556,0.384,0.646,0.595c0.202,0.487-0.284-0.12,0.066,0.333c0.099,0.134,0.32,0.327,0.472,0.54l-0.161,0.169
	c-0.021-0.016-0.042-0.03-0.068-0.042l0.032,0.085l-4.194,4.45C84.558,2.252,82.344,3.25,80.263,4.038L80.263,4.038z"/>
<path fill="#7DC042" d="M102.118,15.124c2.634,0,4.777,2.195,4.777,4.904c0,2.708-2.138,4.9-4.777,4.9
	c-2.642,0-4.778-2.192-4.778-4.9C97.34,17.319,99.479,15.124,102.118,15.124L102.118,15.124z"/>
<path fill="#00A450" d="M102.432,25.621c2.069-0.206,7.277,2.324,3.059,7.086l-4.537,4.198c0.097-0.396,0.222-0.856,0.424-1.449
	c1.163-3.45-0.785-5.444,0.233-7.312C102.101,27.26,102.325,26.391,102.432,25.621L102.432,25.621z M97.363,46.693
	c0.147,0.119,0.248,0.191,0.248,0.191l0.014,0.013c1.701,1.561,0.366,2.604,0.366,2.607l-0.044,0.028
	c-0.251,0.108-0.513,0.177-0.771,0.208C97.094,48.586,96.841,47.601,97.363,46.693L97.363,46.693z"/>
<path fill="#F26422" d="M59.737,32.105l2.198-0.831l1.663,1.585l-2.24,4.171c0.15-2.882-1.34-4.396-1.34-4.396
	C59.917,32.455,59.826,32.279,59.737,32.105L59.737,32.105z M55.981,48.71c0.435,0.794,1.469,1.989,3.873,3.547l0.119,2.928
	c0,0,0.363,0.343,0.986,0.836c-1.495,3.312-2.79,6.07-2.79,6.07l-1.03-0.329l0.215,0.874c0.068,0.073,0.137,0.137,0.201,0.201
	l-0.909,0.039c0,0-1.398-1.099-1.135-3.171l-0.563-0.068c0,0-1.41-1.881-2.926-3.823L55.981,48.71L55.981,48.71z M63.581,57.786
	c1.023,0.575,2.189,1.079,3.35,1.305c0,0,1.863-0.047,2.941,0.328l-4.777-0.134C64.301,58.877,63.637,58.417,63.581,57.786
	L63.581,57.786z"/>
<path fill="#00A450" d="M104.914,16.053c-0.201,1.217-0.52,2.447-1.013,3.807c-0.469,1.288-0.372,1.656-1.31,2.816
	c-0.189,0.229-0.033,1.077-0.093,2.229c2.463-0.199,4.396-2.309,4.396-4.886C106.896,18.393,106.118,16.942,104.914,16.053
	L104.914,16.053z"/>
</svg>
